<svg width="156" height="156" xmlns="http://www.w3.org/2000/svg">
 <g>
  <title>Layer 1</title>
  <rect fill="none" x="5.49986" y="6.30774" width="145.00029" height="144.80817" id="svg_2" rx="39" stroke-width="8" stroke="#000"/>
  <line fill="none" stroke-width="7" x1="24.44147" y1="129.00032" x2="131.55852" y2="129.00032" id="svg_16" stroke="#000"/>
  <line fill="none" stroke-width="7" x1="24.59041" y1="97.00724" x2="91.24559" y2="97.00724" id="svg_17" stroke="#000"/>
  <line fill="none" stroke-width="7" x1="24.7293" y1="61.88916" x2="91.4503" y2="61.88916" id="svg_20" stroke="#000"/>
  <line fill="none" stroke-width="7" x1="24.79875" y1="31.88909" x2="91.51968" y2="31.88909" id="svg_21" stroke="#000"/>
  <path transform="rotate(-33.0457 119.879 66.2206)" fill="none" stroke-width="4" d="m144.94897,32.98856l-8.91509,-5.54549c-2.2493,-1.39777 -5.21315,-0.72502 -6.63045,1.5015l-3.51394,5.53514l17.05494,10.60114l3.51671,-5.53257c1.41192,-2.22918 0.73806,-5.16507 -1.51217,-6.55973l0,0l0,0.00001zm-49.4088,49.31223l17.05587,10.60103l27.79824,-43.79529l-17.06399,-10.6038l-27.79012,43.79805l0,0l0,0.00001zm-2.60528,13.469l-0.3767,9.95737l8.90141,-4.65959l8.27194,-4.32243l-16.45434,-10.23362l-0.3423,9.25828l0,0l0,0l-0.00001,-0.00001z" id="svg_26" stroke="#000"/>
 </g>

</svg>